<?xml version="1.0" standalone="no"?>
<!DOCTYPE svg PUBLIC "-//W3C//DTD SVG 20010904//EN"
 "http://www.w3.org/TR/2001/REC-SVG-20010904/DTD/svg10.dtd">
<svg version="1.0" xmlns="http://www.w3.org/2000/svg"
 width="720.000000pt" height="780.000000pt" viewBox="0 0 720.000000 780.000000"
 preserveAspectRatio="xMidYMid meet">

<g transform="translate(0.000000,780.000000) scale(0.100000,-0.100000)"
fill="#a19e9e" stroke="none">

<path d="M2700 6512 l0 -339 -132 -66 c-119 -59 -279 -155 -333 -200 -11 -8
-51 -41 -90 -72 -574 -464 -887 -1209 -814 -1941 70 -703 453 -1319 1052
-1690 574 -356 1284 -431 1927 -203 406 144 766 409 1032 760 219 289 366 633
423 995 22 134 30 433 16 567 -54 527 -284 1007 -661 1376 -180 176 -436 352
-645 442 l-60 26 -3 341 -2 342 -855 0 -855 0 0 -338z m385 202 c74 -35 63
-150 -18 -177 -7 -2 2 -18 21 -38 17 -19 32 -40 32 -46 0 -7 3 -13 8 -13 10 0
31 -48 24 -55 -3 -3 -20 -5 -38 -5 -34 0 -43 8 -105 98 -21 30 -36 42 -54 42
-23 0 -24 -3 -27 -67 l-3 -68 -35 0 -35 0 -3 160 c-1 87 0 165 2 172 8 20 188
18 231 -3z m396 -139 c81 -203 79 -195 34 -195 -34 0 -38 3 -52 40 l-16 41
-65 -3 c-67 -3 -66 -3 -92 -58 -4 -9 -21 -15 -41 -15 -43 0 -44 -3 33 192 l61
154 39 -3 39 -3 60 -150z m349 9 l0 -146 -29 -29 c-25 -25 -37 -29 -81 -29
-44 0 -56 4 -81 30 -42 42 -38 84 9 88 26 3 32 0 32 -15 0 -41 51 -59 70 -24
5 11 10 76 10 145 l0 126 35 0 35 0 0 -146z m362 -24 c37 -91 63 -169 59 -173
-5 -5 -24 -7 -42 -5 -30 3 -35 7 -43 41 l-10 37 -67 0 -67 0 -16 -40 c-14 -36
-19 -40 -51 -40 -21 0 -35 5 -35 13 0 12 114 309 126 329 3 5 22 8 42 6 l37
-3 67 -165z m-293 -325 c365 -63 669 -194 960 -413 385 -289 662 -702 785
-1172 54 -207 61 -267 61 -550 0 -235 -3 -278 -23 -375 -48 -238 -119 -445
-209 -615 -315 -588 -836 -980 -1483 -1118 -277 -60 -619 -56 -910 8 -276 61
-596 208 -815 374 -453 344 -749 833 -842 1391 -27 165 -25 547 5 701 46 241
92 384 187 579 237 489 636 859 1155 1069 126 52 367 112 540 136 101 14 480
4 589 -15z"/>
<path d="M2934 6656 c-3 -8 -4 -27 -2 -43 3 -27 5 -28 52 -26 55 2 81 20 72
51 -10 32 -111 47 -122 18z"/>
<path d="M3356 6573 c-9 -26 -16 -48 -16 -50 0 -2 18 -3 40 -3 22 0 40 1 40 3
0 15 -34 97 -40 97 -4 0 -15 -21 -24 -47z"/>
<path d="M4067 6585 c-22 -65 -22 -65 18 -65 41 0 43 12 16 75 l-18 40 -16
-50z"/>
<path d="M3641 6153 c-20 -17 -22 -25 -19 -143 l3 -125 40 -2 c22 -2 89 -8
149 -13 84 -8 121 -8 158 1 39 10 58 10 99 0 44 -11 53 -11 66 1 13 13 10 17
-19 29 -18 7 -65 32 -104 56 -71 43 -105 51 -134 33 -11 -7 -9 -11 14 -20 16
-6 42 -20 58 -32 26 -18 28 -22 14 -30 -9 -5 -39 -5 -73 1 -32 5 -93 13 -135
17 l-78 6 0 119 c0 66 -4 119 -9 119 -5 0 -18 -8 -30 -17z"/>
<path d="M3081 6112 l-22 -31 22 -73 c11 -40 27 -100 34 -133 12 -58 13 -59
24 -32 15 39 14 114 -3 171 -8 27 -12 54 -10 61 3 7 -1 26 -9 40 l-14 27 -22
-30z"/>
<path d="M2901 6061 c-8 -14 -7 -22 3 -31 17 -13 79 -180 71 -188 -3 -4 -46
-21 -95 -38 -77 -28 -92 -30 -107 -18 -24 18 -50 17 -57 -2 -7 -19 1 -34 18
-34 7 0 20 -8 30 -19 12 -14 14 -24 7 -43 -17 -44 -61 -87 -97 -94 -19 -3 -38
-12 -42 -19 -4 -7 -16 -14 -26 -16 -27 -5 -33 -29 -7 -29 21 0 52 14 81 37 8
6 31 13 50 15 29 2 38 9 52 38 10 19 20 51 23 71 5 36 7 37 88 64 45 15 89 31
98 36 30 15 32 70 6 152 -15 46 -21 80 -16 89 5 7 9 21 9 31 0 26 -75 24 -89
-2z"/>
<path d="M3439 6033 c-30 -18 -59 -62 -59 -89 0 -9 7 -26 16 -35 15 -17 15
-20 0 -43 -30 -47 -20 -60 22 -26 21 17 56 36 78 41 39 11 54 23 54 47 0 8
-17 12 -52 12 -29 0 -60 5 -68 10 -13 9 -12 13 9 30 13 11 38 20 57 20 30 0
54 20 54 44 0 13 -87 4 -111 -11z"/>
<path d="M4550 5920 c-8 -5 -16 -21 -17 -36 -2 -29 -40 -132 -55 -148 -5 -6
-33 2 -71 22 -35 17 -76 36 -90 41 -17 7 -27 19 -29 37 -3 30 -16 38 -37 25
-12 -8 -12 -14 -1 -40 9 -24 10 -34 1 -45 -18 -21 -95 -38 -125 -26 -14 5 -26
6 -26 1 0 -14 46 -51 63 -51 22 0 68 21 91 42 27 25 35 23 131 -23 l84 -41 29
21 c16 11 41 46 56 80 19 43 33 61 51 65 33 8 32 16 -8 54 -23 23 -36 29 -47
22z"/>
<path d="M3932 5803 c-10 -4 -10 -9 3 -23 22 -24 49 -16 34 11 -10 20 -15 21
-37 12z"/>
<path d="M4669 5768 c-12 -24 -39 -69 -60 -100 -30 -46 -35 -58 -21 -58 9 0
29 8 44 18 30 19 87 90 88 107 0 6 8 15 19 22 10 6 21 21 24 32 5 19 1 21 -34
21 -35 0 -40 -3 -60 -42z"/>
<path d="M2545 5739 c-5 -15 -1 -25 14 -35 12 -9 21 -19 21 -24 0 -10 -137
-101 -160 -107 -9 -2 -37 28 -75 82 -33 46 -65 85 -71 85 -15 0 -27 -47 -17
-63 16 -27 126 -163 137 -169 7 -4 52 20 101 53 50 32 98 62 107 65 26 8 25
87 -2 114 -26 26 -47 25 -55 -1z"/>
<path d="M3285 5651 c-632 -112 -1125 -587 -1267 -1222 -20 -92 -23 -130 -23
-324 0 -241 9 -306 67 -485 37 -115 119 -286 184 -383 27 -40 51 -74 54 -77 3
-3 23 -27 45 -55 198 -248 509 -444 830 -523 216 -54 462 -62 664 -23 104 20
312 83 336 101 6 4 20 11 33 15 31 9 176 91 238 134 183 127 339 293 456 486
300 494 300 1121 0 1620 -232 384 -641 663 -1082 736 -150 25 -393 25 -535 0z
m556 -16 c262 -47 534 -180 744 -363 120 -105 254 -268 330 -404 84 -150 157
-368 184 -545 14 -92 14 -328 0 -430 -13 -98 -51 -248 -84 -336 -25 -67 -112
-248 -124 -257 -3 -3 -12 -16 -20 -30 -8 -14 -38 -56 -67 -95 -233 -311 -548
-511 -939 -597 -85 -19 -131 -22 -305 -23 -178 0 -220 3 -315 23 -275 59 -513
179 -726 365 -72 63 -210 220 -256 293 -7 10 -24 36 -37 56 -45 68 -124 242
-155 341 -16 54 -40 155 -52 225 -18 109 -21 152 -16 302 5 157 9 189 40 310
41 156 60 207 129 345 145 290 385 528 685 679 186 93 296 125 548 160 62 9
354 -4 436 -19z"/>
<path d="M3483 5400 c-38 -23 -53 -67 -53 -156 0 -95 -20 -263 -34 -299 -17
-39 -65 -75 -101 -75 -46 0 -102 39 -250 174 -11 10 -51 44 -90 75 -38 31 -76
62 -83 68 -23 22 -59 26 -113 13 -28 -7 -76 -10 -105 -7 -64 7 -63 -5 1 -23
25 -7 45 -15 45 -18 0 -2 -16 -23 -36 -45 -47 -51 -82 -128 -99 -219 -13 -62
-44 -321 -86 -708 -58 -544 -91 -776 -123 -885 -9 -27 -14 -51 -12 -53 8 -8
48 25 67 55 11 17 26 64 34 105 32 171 130 929 150 1173 21 239 40 350 67 389
70 98 124 117 193 70 27 -18 45 -23 65 -19 61 13 101 -5 180 -80 114 -109 191
-138 262 -101 24 13 28 12 40 -6 18 -26 63 -18 73 12 9 28 21 25 35 -10 15
-37 32 -38 59 -2 21 27 21 27 27 5 8 -31 41 -39 65 -17 10 9 19 24 19 32 0 12
6 10 25 -8 22 -20 31 -22 92 -18 89 6 121 24 221 122 l84 81 66 0 c56 -1 71 3
92 22 54 50 137 22 196 -66 30 -46 47 -134 69 -346 24 -240 136 -1020 171
-1195 18 -84 45 -145 73 -160 25 -13 44 -13 36 0 -3 5 -8 18 -10 27 -3 10 -16
63 -30 118 -28 110 -25 91 -124 865 -67 522 -80 606 -96 660 -22 74 -52 133
-90 174 -19 22 -35 43 -35 46 0 4 19 13 43 21 l42 13 -85 7 c-47 3 -93 9 -102
13 -18 8 -83 -24 -123 -61 -11 -10 -58 -52 -105 -93 -47 -41 -107 -96 -135
-122 -66 -62 -99 -76 -134 -57 -61 34 -137 203 -148 330 -7 73 7 92 78 110 27
7 48 18 46 23 -2 6 -30 18 -63 27 -32 8 -69 21 -81 27 -35 19 -133 15 -170 -8z"/>
<path d="M4188 4916 c-31 -18 -94 -60 -140 -91 -251 -175 -282 -190 -381 -182
l-71 5 33 -30 c31 -28 38 -30 100 -26 70 4 127 30 251 118 155 110 291 152
379 116 40 -15 41 -15 41 5 0 23 -25 75 -48 102 -26 30 -99 23 -164 -17z"/>
<path d="M2785 4928 c-28 -16 -42 -36 -59 -87 -15 -43 -15 -43 7 -36 12 4 56
9 97 12 99 6 149 -13 325 -123 75 -47 157 -93 181 -101 54 -18 117 -12 153 14
44 34 36 40 -46 35 -101 -5 -123 5 -406 197 -76 52 -176 101 -205 101 -15 0
-36 -6 -47 -12z"/>
<path d="M4210 4781 c-19 -5 -24 -13 -23 -31 3 -30 27 -333 48 -610 27 -354
45 -544 54 -575 12 -44 47 -109 66 -125 15 -12 16 -9 11 46 -9 98 -25 280 -56
659 -52 633 -53 645 -64 644 -6 -1 -22 -4 -36 -8z"/>
<path d="M4325 4774 c4 -11 40 -306 80 -657 41 -351 79 -653 85 -672 11 -33
66 -102 75 -94 2 3 -7 97 -21 209 -13 113 -36 309 -49 435 -14 127 -37 327
-51 445 -14 118 -28 239 -31 267 -6 59 -13 68 -62 78 -31 7 -33 5 -26 -11z"/>
<path d="M2865 4767 c-1 -7 -8 -93 -15 -192 -6 -99 -20 -306 -30 -460 -10
-154 -24 -361 -30 -460 -5 -99 -13 -193 -16 -209 -9 -43 14 -29 47 30 42 74
42 66 89 884 6 102 15 232 19 290 4 58 7 106 6 108 -1 1 -17 7 -34 12 -23 6
-33 6 -36 -3z"/>
<path d="M2732 4753 c-17 -16 -22 -42 -36 -193 -9 -96 -23 -245 -31 -330 -9
-85 -22 -225 -30 -310 -8 -85 -24 -247 -35 -360 -11 -113 -20 -212 -20 -220 0
-9 13 -1 34 21 24 26 37 53 45 90 10 50 53 479 101 1014 11 121 24 239 29 263
8 40 7 42 -14 42 -13 0 -32 -8 -43 -17z"/>
<path d="M4057 4717 c-26 -15 -36 -26 -31 -37 8 -18 14 -96 53 -637 21 -288
35 -421 45 -440 17 -34 54 -69 63 -60 3 4 1 66 -6 139 -13 144 -79 946 -83
1015 l-3 42 -38 -22z"/>
<path d="M3022 4657 c-3 -77 -37 -614 -57 -903 -9 -119 -13 -219 -10 -222 8
-8 56 40 67 67 5 14 13 102 19 195 32 571 50 863 55 878 3 12 -4 22 -25 32
-17 9 -34 16 -38 16 -4 0 -9 -28 -11 -63z"/>
<path d="M3170 4638 c-5 -33 -36 -974 -33 -978 8 -9 37 18 54 51 15 29 21 92
34 414 20 469 20 470 -22 496 -18 12 -33 19 -33 17z"/>
<path d="M3907 4617 l-27 -22 10 -175 c6 -96 17 -286 24 -421 14 -241 19 -272
54 -311 30 -35 40 -22 35 50 -11 200 -43 827 -43 862 0 46 -12 50 -53 17z"/>
<path d="M3809 4525 c-1 -6 -1 -12 -1 -15 16 -265 23 -480 18 -532 -7 -66 -8
-68 -36 -68 -22 0 -30 -6 -39 -30 -16 -47 -49 -41 -57 10 -5 32 -11 40 -28 40
-11 0 -30 7 -40 15 -27 20 -63 19 -94 -4 -15 -10 -36 -20 -47 -22 -11 -3 -20
-13 -21 -24 -2 -48 -5 -55 -23 -55 -12 0 -26 12 -33 28 -11 21 -20 26 -40 24
-31 -3 -32 0 -49 117 -8 56 -10 158 -7 298 3 117 2 213 -2 213 -38 0 -47 -488
-13 -655 18 -87 20 -90 44 -87 24 2 28 -3 43 -58 9 -32 19 -81 23 -107 6 -53
0 -63 -110 -189 -27 -31 -47 -57 -45 -58 11 -7 360 12 369 21 9 9 -70 91 -116
120 -19 12 -19 13 5 32 25 21 98 28 148 15 49 -14 17 -23 -58 -17 -54 4 -80 3
-80 -5 0 -6 9 -13 20 -17 11 -3 43 -31 71 -61 50 -52 53 -53 75 -39 29 19 34
19 34 1 0 -8 -9 -21 -21 -29 -18 -13 -19 -18 -7 -36 15 -25 12 -25 85 -6 31 8
74 15 93 15 50 0 54 7 19 44 -16 17 -32 45 -35 63 -3 18 -23 49 -45 72 -29 29
-39 48 -39 72 0 53 23 159 34 159 32 0 56 174 56 408 0 134 -23 329 -40 346
-6 6 -10 6 -11 1z m-180 -641 c12 -15 21 -35 21 -45 0 -21 11 -24 27 -8 8 8
19 5 42 -12 29 -21 31 -26 31 -90 0 -83 -18 -108 -93 -134 -49 -17 -62 -17
-113 -6 -82 19 -102 30 -114 64 -18 52 -13 134 10 157 22 22 41 25 57 9 7 -7
12 -1 17 22 14 70 76 93 115 43z m146 -374 c18 -19 17 -20 -3 -20 -15 0 -22 6
-22 20 0 11 2 20 3 20 2 0 12 -9 22 -20z"/>
<path d="M3618 3354 c-3 -3 -75 -6 -159 -7 -139 -2 -159 -5 -203 -26 -66 -33
-80 -67 -80 -196 -1 -61 4 -108 12 -122 11 -21 14 -19 79 49 77 79 190 158
311 217 46 22 89 42 95 44 8 3 6 11 -7 26 -19 21 -37 27 -48 15z"/>
<path d="M3778 3316 c-49 -15 -51 -17 -33 -59 14 -33 18 -36 44 -31 46 9 101
-15 158 -69 52 -49 53 -50 53 -22 0 39 -28 143 -47 171 -13 21 -23 24 -77 23
-33 -1 -78 -6 -98 -13z"/>
<path d="M3565 3227 c-165 -86 -295 -190 -330 -263 -17 -36 -17 -36 13 -77 35
-49 127 -123 162 -132 42 -10 89 44 130 150 41 107 103 218 148 265 43 45 43
45 28 77 -9 19 -23 33 -33 33 -10 -1 -63 -24 -118 -53z"/>
<path d="M3780 3189 c0 -6 12 -50 27 -98 21 -69 27 -106 27 -188 l0 -101 26
20 c39 31 98 125 116 185 l16 55 -29 36 c-40 50 -119 102 -154 102 -16 0 -29
-5 -29 -11z"/>
<path d="M3697 3131 c-39 -44 -71 -101 -122 -223 -18 -43 -49 -100 -69 -128
-20 -28 -31 -52 -25 -55 5 -4 49 -7 97 -7 65 0 101 6 144 22 54 20 58 24 74
72 13 39 15 68 10 124 -8 84 -46 226 -62 231 -6 2 -27 -14 -47 -36z"/>
<path d="M2187 5512 c-29 -18 -76 -116 -101 -214 -14 -52 -14 -53 -50 -51 -31
2 -36 -1 -36 -19 0 -11 7 -26 15 -32 13 -9 8 -22 -36 -86 -27 -41 -68 -110
-90 -152 -34 -67 -37 -81 -27 -98 7 -11 15 -20 18 -20 3 1 18 19 34 42 25 36
29 39 38 24 13 -23 -8 -133 -33 -175 -22 -36 -60 -48 -97 -31 l-27 12 29 -31
c60 -63 125 -30 161 80 23 69 22 134 -3 188 l-20 45 36 55 c20 31 43 70 52 86
21 38 60 83 183 209 53 55 97 104 97 109 0 4 -7 23 -14 42 -14 32 -18 35 -58
35 -24 0 -55 -8 -71 -18z m103 -38 c0 -8 -173 -175 -177 -170 -5 5 45 135 60
154 12 16 66 29 94 24 13 -2 23 -6 23 -8z"/>
<path d="M2038 5453 c-10 -2 -18 -13 -18 -24 0 -17 4 -19 23 -13 24 7 38 24
31 36 -5 8 -8 8 -36 1z"/>
<path d="M4780 5437 c-84 -43 -44 -149 80 -212 46 -24 137 -35 153 -19 3 3 -4
32 -16 65 -11 32 -18 61 -15 64 11 11 66 -24 93 -59 18 -24 31 -32 45 -29 29
8 25 22 -19 63 -38 36 -99 60 -155 60 -36 0 -39 -12 -16 -71 12 -28 18 -54 15
-57 -10 -11 -107 43 -136 75 -35 40 -37 78 -7 110 24 26 16 29 -22 10z"/>
<path d="M4710 5270 c0 -10 9 -24 20 -30 11 -6 20 -17 20 -25 0 -8 7 -15 15
-15 9 0 15 9 15 25 0 15 -6 25 -14 25 -7 0 -16 9 -19 20 -7 26 -37 26 -37 0z"/>
<path d="M5048 5152 c-25 -5 -23 -13 17 -73 42 -65 53 -71 105 -63 49 8 73 38
68 86 -2 28 -7 34 -31 36 -25 3 -27 1 -22 -21 7 -28 -9 -67 -28 -67 -7 0 -25
20 -40 44 -33 53 -46 64 -69 58z"/>
<path d="M5290 4980 c-63 -26 -116 -54 -118 -62 -1 -8 22 -67 52 -131 l55
-117 48 0 c76 0 128 51 67 66 -19 5 -29 1 -41 -15 -8 -12 -19 -21 -24 -19 -6
2 -28 44 -49 93 -32 71 -37 92 -28 101 7 6 56 28 108 48 52 21 99 41 104 46 7
7 -45 43 -56 39 -2 -1 -55 -22 -118 -49z"/>
<path d="M5466 4784 c-8 -29 -1 -44 20 -44 9 0 14 10 14 29 0 37 -26 49 -34
15z"/>
<path d="M2028 4769 c-10 -6 -18 -21 -18 -34 0 -14 -4 -25 -10 -25 -5 0 -10
-11 -10 -25 0 -23 2 -24 20 -15 12 6 20 21 20 35 0 14 4 25 9 25 13 0 23 32
14 41 -4 4 -16 3 -25 -2z"/>
<path d="M1766 3695 c-54 -8 -115 -15 -135 -17 -38 -3 -41 -11 -26 -77 6 -25
9 -25 123 -5 28 5 32 3 32 -14 0 -13 -15 -32 -37 -49 -78 -58 -77 -57 -63
-108 7 -25 18 -45 24 -45 7 0 38 25 70 55 54 51 60 55 75 40 36 -32 141 -7
162 38 8 19 6 39 -10 94 -12 39 -21 78 -21 87 0 20 -50 20 -194 1z m148 -99
c9 -37 -3 -56 -34 -56 -21 0 -30 7 -40 29 -15 38 -7 51 35 51 26 0 34 -5 39
-24z"/>
<path d="M5235 3688 c-100 -35 -124 -136 -52 -216 22 -24 131 -62 178 -62 89
0 159 72 159 164 0 41 -5 52 -31 77 -40 37 -60 37 -83 -2 -18 -30 -18 -30 8
-54 31 -28 32 -45 8 -75 -20 -25 -63 -29 -130 -11 -75 21 -91 87 -26 111 21 8
25 16 22 42 -3 36 -12 40 -53 26z"/>
<path d="M5065 3359 c-9 -17 -15 -32 -13 -34 3 -2 114 -48 262 -106 27 -10 54
-19 60 -19 11 0 42 68 34 75 -1 2 -64 24 -138 49 -74 26 -145 51 -158 56 -31
13 -29 14 -47 -21z"/>
<path d="M1979 3335 c-3 -2 -64 -5 -137 -6 -73 0 -134 -4 -136 -7 -2 -4 3 -24
11 -44 13 -34 19 -38 49 -38 31 0 37 -5 56 -46 l23 -45 -24 -18 c-22 -17 -23
-19 -7 -49 9 -17 19 -33 24 -36 4 -2 35 20 67 50 33 31 93 83 133 116 39 33
72 63 72 65 0 2 -7 17 -15 33 -14 27 -20 30 -64 30 -26 0 -50 -2 -52 -5z m16
-73 c-44 -37 -88 -63 -95 -56 -4 5 -11 19 -14 31 -6 18 -2 22 21 26 51 8 97 7
88 -1z"/>
<path d="M4991 3223 c-7 -16 -30 -54 -52 -85 -21 -32 -39 -61 -39 -66 0 -4 14
-16 32 -26 l31 -19 19 27 c20 26 46 34 64 17 5 -5 51 -32 102 -60 l93 -52 19
23 c22 26 26 55 8 60 -7 2 -59 27 -116 56 l-102 52 15 30 c20 39 19 45 -10 58
-39 18 -51 15 -64 -15z"/>
<path d="M2145 2995 c-96 -62 -137 -77 -150 -54 -4 5 1 19 11 30 17 19 17 21
-9 46 l-27 27 -30 -29 c-51 -48 -32 -127 37 -160 51 -25 81 -11 266 119 l48
34 -23 26 -23 26 -100 -65z"/>
<path d="M4793 2950 l-62 -67 82 -75 c147 -133 164 -148 175 -148 14 0 153
151 150 162 -2 5 -15 17 -30 26 -25 15 -27 15 -51 -14 -70 -82 -64 -78 -92
-60 -33 21 -32 29 10 80 34 41 34 44 17 59 -26 24 -34 22 -76 -23 -31 -34 -40
-39 -56 -30 -28 15 -25 27 15 75 32 40 33 44 17 57 -9 8 -21 17 -27 20 -5 3
-38 -25 -72 -62z"/>
<path d="M2305 2865 c-38 -19 -111 -51 -162 -71 l-92 -37 17 -23 c22 -30 46
-38 71 -24 17 8 26 5 53 -19 31 -27 32 -32 22 -59 -10 -27 -9 -33 10 -51 31
-29 43 -26 64 17 10 20 46 85 80 143 34 58 62 110 62 115 0 11 -36 44 -48 44
-4 0 -38 -16 -77 -35z m1 -105 c-14 -22 -30 -40 -35 -40 -16 0 -43 32 -34 40
15 15 87 50 91 45 3 -3 -7 -23 -22 -45z"/>
<path d="M4568 2746 c-23 -17 -22 -25 5 -57 12 -14 57 -70 100 -123 43 -53 84
-96 90 -96 21 1 157 112 157 128 0 5 -11 18 -24 30 l-25 21 -43 -35 c-42 -33
-73 -43 -80 -25 -5 14 -150 171 -157 171 -3 0 -14 -7 -23 -14z"/>
<path d="M4443 2663 c-25 -17 -20 -36 18 -77 27 -29 24 -42 -17 -61 -41 -19
-39 -20 -75 48 -19 37 -20 37 -49 22 -28 -14 -29 -17 -16 -38 7 -12 39 -71 71
-132 81 -155 75 -148 113 -125 l32 20 -30 50 c-37 62 -37 74 -5 88 43 20 54
14 87 -38 17 -27 36 -50 42 -50 6 0 22 9 35 19 25 19 25 19 6 47 -10 16 -23
34 -29 40 -6 6 -42 55 -81 107 -38 53 -72 96 -75 96 -3 0 -15 -7 -27 -16z"/>
<path d="M2642 2633 c-48 -23 -118 -108 -132 -159 -15 -54 -8 -86 28 -119 37
-35 82 -41 128 -19 54 27 64 48 37 76 -21 20 -23 21 -41 5 -35 -31 -82 -16
-82 27 0 28 59 112 88 125 31 15 62 -2 62 -33 0 -17 7 -25 24 -28 30 -6 46 8
46 39 0 55 -48 103 -102 103 -13 0 -38 -8 -56 -17z"/>
<path d="M2830 2410 c-39 -78 -69 -148 -67 -154 5 -13 151 -66 180 -66 9 0 17
6 17 13 0 6 3 22 6 33 5 19 -1 24 -45 39 -58 19 -66 27 -52 52 19 35 92 205
89 208 -2 2 -15 6 -30 10 -26 7 -29 3 -98 -135z"/>
<path d="M4126 2518 c-44 -16 -82 -31 -84 -33 -3 -2 1 -18 8 -35 11 -27 17
-30 48 -28 l36 3 40 -107 c23 -58 44 -110 48 -113 11 -12 68 6 68 21 0 7 -20
59 -45 115 -25 56 -45 105 -45 109 0 4 14 13 31 20 22 9 28 17 23 29 -3 9 -9
24 -11 34 -7 22 -22 20 -117 -15z"/>
<path d="M3117 2473 c-15 -26 -67 -217 -67 -246 0 -49 30 -83 89 -97 41 -10
54 -9 79 4 45 23 60 55 83 182 17 96 18 118 7 125 -24 16 -48 9 -53 -13 -3
-13 -14 -63 -25 -112 -23 -101 -32 -116 -66 -116 -43 0 -46 35 -14 154 27 102
27 107 10 116 -22 12 -37 13 -43 3z"/>
<path d="M3881 2451 c-10 -6 -17 -40 -21 -103 -5 -51 -11 -126 -15 -165 -8
-72 -7 -73 16 -73 40 0 53 14 58 62 1 3 20 9 43 13 36 6 43 4 58 -15 15 -19
23 -22 54 -16 44 8 43 11 -12 94 -21 31 -58 92 -82 135 -44 78 -63 91 -99 68z
m84 -191 c-3 -6 -15 -10 -26 -10 -17 0 -19 7 -19 58 l1 57 25 -48 c14 -26 22
-52 19 -57z"/>
<path d="M3387 2294 c-25 -206 -29 -191 48 -199 123 -14 170 12 170 92 0 35
-5 48 -25 63 -23 18 -24 19 -7 38 23 25 22 84 -2 113 -16 20 -30 24 -93 27
l-74 4 -17 -138z m136 46 c7 -26 -15 -53 -39 -49 -13 3 -20 14 -22 37 -3 30
-1 32 26 32 21 0 31 -6 35 -20z m2 -145 c0 -27 -3 -30 -37 -33 -38 -3 -38 -3
-38 33 0 36 0 36 38 33 34 -3 37 -6 37 -33z"/>
<path d="M2700 1535 c0 -402 1 -427 18 -422 9 3 55 19 102 36 164 58 320 92
519 112 158 16 442 6 601 -21 115 -20 345 -82 425 -116 19 -8 37 -14 40 -14 3
0 5 191 5 425 0 234 -2 425 -4 425 -2 0 -26 -9 -51 -20 -78 -33 -278 -88 -413
-112 -111 -20 -159 -23 -392 -23 -282 0 -338 7 -550 60 -82 21 -224 66 -282
90 -17 7 -18 -17 -18 -420z m219 61 c17 -20 23 -116 10 -133 -7 -8 -33 -13
-70 -13 l-59 0 0 80 0 80 54 0 c34 0 58 -5 65 -14z m167 -68 c26 -62 30 -77
18 -82 -8 -3 -20 3 -26 14 -16 24 -66 27 -83 4 -6 -9 -19 -15 -27 -13 -14 4
-13 14 14 82 25 67 33 78 51 75 16 -2 29 -22 53 -80z m156 65 c10 -9 18 -20
18 -25 0 -11 -38 -10 -45 2 -9 14 -47 12 -43 -2 3 -7 17 -15 32 -19 38 -10 56
-28 56 -53 0 -33 -19 -46 -66 -46 -45 0 -70 19 -60 46 6 16 8 16 24 0 23 -20
62 -21 62 -1 0 8 -7 15 -15 15 -9 0 -29 7 -45 15 -32 16 -40 51 -18 73 17 17
78 15 100 -5z m78 -8 c0 -14 4 -25 8 -25 5 0 19 11 32 25 25 26 60 34 60 12 0
-7 -9 -18 -20 -25 -26 -16 -25 -24 6 -72 29 -43 25 -67 -7 -49 -11 5 -25 21
-31 35 -15 33 -37 30 -45 -6 -4 -21 -11 -30 -21 -28 -11 2 -16 20 -18 73 -2
76 0 85 22 85 8 0 14 -10 14 -25z m255 10 c0 -5 -19 -11 -42 -13 -29 -2 -43
-8 -43 -18 0 -10 12 -14 40 -14 54 0 56 -27 3 -32 -27 -2 -39 -8 -41 -20 -3
-15 4 -18 42 -18 34 0 46 -4 46 -15 0 -12 -14 -15 -65 -15 l-65 0 0 80 0 81
63 -3 c34 -2 62 -7 62 -13z m148 0 c-1 -5 -11 -11 -23 -13 -18 -3 -20 -11 -20
-68 0 -57 -2 -64 -20 -64 -18 0 -20 7 -20 65 0 58 -2 65 -19 65 -22 0 -34 13
-24 24 11 11 128 2 126 -9z m142 -1 c10 -11 14 -25 11 -40 -3 -12 -2 -34 4
-48 15 -39 -9 -56 -81 -56 l-59 0 0 73 c0 41 3 77 7 80 14 14 102 7 118 -9z
m164 -60 c35 -82 31 -114 -8 -75 -25 25 -81 29 -81 6 0 -9 -9 -15 -21 -15 -25
0 -22 19 16 105 34 79 52 74 94 -21z m85 9 l0 -62 40 -3 c22 -2 41 -9 44 -15
3 -10 -13 -13 -57 -13 l-61 0 0 81 c0 71 2 80 18 77 14 -3 17 -14 16 -65z
m137 55 c0 -7 0 -36 -1 -65 l-1 -52 42 -3 c69 -5 62 -28 -9 -28 l-60 0 -4 58
c-4 76 0 102 18 102 8 0 14 -6 15 -12z"/>
<path d="M2840 1565 c0 -12 7 -15 25 -13 14 2 26 8 26 13 0 6 -12 11 -26 13
-18 2 -25 -1 -25 -13z"/>
<path d="M2846 1512 c-16 -15 -3 -32 24 -32 20 0 30 5 30 15 0 8 -3 15 -7 16
-5 0 -16 2 -25 4 -9 2 -19 0 -22 -3z"/>
<path d="M3025 1540 c-4 -6 -3 -16 3 -22 13 -13 23 4 13 21 -7 10 -10 10 -16
1z"/>
<path d="M3787 1574 c-15 -15 -6 -24 24 -24 20 0 29 4 27 13 -5 14 -40 21 -51
11z"/>
<path d="M3787 1513 c-17 -16 -5 -33 23 -33 19 0 30 5 30 14 0 20 -39 34 -53
19z"/>
<path d="M3965 1540 c-7 -12 2 -30 16 -30 12 0 12 27 0 35 -5 3 -12 1 -16 -5z"/>
</g>
</svg>
