<?xml version="1.0" standalone="no"?>
<!DOCTYPE svg PUBLIC "-//W3C//DTD SVG 20010904//EN"
 "http://www.w3.org/TR/2001/REC-SVG-20010904/DTD/svg10.dtd">
<svg version="1.0" xmlns="http://www.w3.org/2000/svg"
 width="1062.000000pt" height="460.000000pt" viewBox="0 0 1062.000000 460.000000"
 preserveAspectRatio="xMidYMid meet">

<g transform="translate(0.000000,460.000000) scale(0.100000,-0.100000)"
fill="#ffffff" >
<path d="M0 2300 l0 -2300 5310 0 5310 0 0 2300 0 2300 -5310 0 -5310 0 0
-2300z m2272 501 c71 -20 201 -87 283 -145 27 -20 53 -36 57 -36 4 0 8 27 10
59 l3 60 47 -42 47 -42 11 -114 c5 -63 8 -117 5 -119 -3 -3 -57 -9 -121 -14
l-116 -9 -45 37 c-49 40 -45 54 15 54 49 0 39 20 -41 77 -162 114 -257 142
-373 108 -197 -56 -311 -253 -264 -456 37 -161 187 -286 354 -297 61 -3 83 0
155 27 46 17 91 37 100 44 32 26 103 69 96 57 -8 -13 -139 -100 -150 -100 -4
0 -19 -8 -33 -18 -136 -93 -386 -29 -510 130 -57 73 -79 123 -93 209 -34 201
72 400 264 497 108 54 192 63 299 33z m1398 -61 c179 -70 303 -269 287 -461
-9 -109 -57 -211 -136 -288 -85 -83 -86 -84 -151 -109 -68 -27 -133 -41 -184
-42 -69 0 -206 54 -326 129 -61 39 -116 68 -122 65 -5 -3 -6 -29 -2 -61 l7
-55 -51 38 -50 39 -6 85 c-4 47 -9 102 -11 122 -6 45 -6 45 140 53 l110 6 45
-40 45 -39 -50 -7 c-28 -4 -54 -10 -59 -13 -12 -7 59 -63 179 -140 131 -83
254 -79 384 12 156 108 206 311 118 481 -45 87 -67 112 -140 159 -73 48 -154
69 -232 63 -48 -5 -85 -18 -187 -70 -71 -36 -128 -64 -128 -62 0 1 27 21 59
44 65 45 176 99 231 112 55 13 170 2 230 -21z m2426 -115 c12 -18 14 -31 7
-52 -22 -64 -113 -48 -113 20 0 42 15 57 57 57 24 0 37 -7 49 -25z m996 8 c10
-9 18 -27 18 -40 0 -28 -33 -63 -60 -63 -26 0 -60 34 -60 62 0 50 63 76 102
41z m-1228 -39 c11 -4 16 -19 16 -45 0 -37 -1 -39 -33 -39 -43 0 -79 -26 -75
-53 2 -17 11 -23 41 -25 37 -3 37 -4 37 -48 l0 -44 -40 0 -40 0 0 -110 c0
-115 0 -114 48 -110 20 1 22 -3 22 -49 l0 -51 -140 0 -140 0 0 50 c0 49 1 51
28 48 l27 -3 3 113 3 112 -36 0 c-35 0 -35 0 -35 45 0 45 0 45 35 45 34 0 35
1 35 40 0 54 24 98 63 115 32 14 152 20 181 9z m2901 -236 l0 -243 28 3 c26 3
27 1 27 -48 l0 -50 -74 0 c-65 0 -75 3 -81 19 -12 40 -27 41 -119 10 -100 -35
-137 -33 -185 7 -39 33 -61 101 -61 193 0 95 13 142 51 185 38 44 81 51 179
32 41 -8 79 -11 83 -6 5 4 7 18 5 31 -2 20 -10 25 -40 27 -37 3 -38 4 -38 43
l0 39 113 0 112 0 0 -242z m-5626 229 c-2 -1 -15 -11 -29 -22 l-25 -20 19 23
c11 12 24 22 29 22 6 0 8 -1 6 -3z m4451 -32 c30 -16 32 -16 37 4 4 17 13 21
49 21 l44 0 0 -90 0 -90 -49 0 c-45 0 -51 3 -70 33 -50 82 -161 74 -206 -14
-41 -78 -23 -236 31 -278 69 -54 133 -49 205 17 l37 33 36 -18 c20 -9 36 -20
36 -25 0 -16 -82 -87 -124 -107 -63 -31 -173 -29 -246 5 -30 14 -67 37 -82 51
-75 72 -84 289 -16 385 23 34 98 79 147 89 52 11 133 3 171 -16z m-2740 -34
l0 -49 -40 5 -40 6 2 -184 3 -184 38 3 37 3 0 -51 0 -50 -150 0 -150 0 0 50 0
50 33 -2 32 -3 0 180 0 180 -30 0 c-38 0 -41 5 -37 55 l4 40 149 0 149 0 0
-49z m3297 -64 c118 -62 141 -278 39 -379 -44 -44 -103 -61 -194 -57 -66 3
-86 9 -127 34 -69 43 -90 88 -90 195 0 103 20 151 82 194 66 45 214 52 290 13z
m-3079 -4 l19 -27 81 27 c87 29 162 34 201 14 50 -25 64 -67 70 -216 l6 -136
38 3 38 3 -3 -48 -3 -48 -142 -3 -143 -3 0 51 c0 49 1 51 28 48 l27 -3 -1 110
c0 69 -5 119 -13 133 -20 37 -54 44 -114 24 l-52 -17 -3 -122 c-2 -94 0 -123
10 -124 7 -1 22 -2 33 -3 17 -1 21 -9 23 -48 l3 -48 -145 0 -146 0 0 51 0 51
35 -6 35 -7 0 141 0 140 -35 0 c-35 0 -35 0 -35 45 l0 45 84 0 c80 0 85 -1
104 -27z m1057 -155 l0 -183 38 3 37 3 0 -51 0 -50 -150 0 -150 0 0 51 c0 50
0 51 28 45 49 -11 53 -1 50 140 l-3 129 -37 3 c-38 3 -38 4 -38 48 l0 44 113
0 112 0 0 -182z m293 155 l19 -27 81 27 c139 46 224 32 254 -42 6 -14 14 -87
17 -161 l6 -135 38 3 38 3 -3 -48 -3 -48 -142 -3 -143 -3 0 52 c0 48 1 51 23
46 45 -12 51 3 44 113 -9 152 -40 185 -140 152 l-52 -17 -3 -119 c-3 -128 2
-140 45 -129 22 5 23 2 23 -46 l0 -51 -145 0 -145 0 0 50 0 51 38 -3 37 -3 3
138 3 137 -41 0 -40 0 0 45 0 45 84 0 c80 0 85 -1 104 -27z m704 -149 c-5
-192 -3 -198 50 -187 28 5 28 5 28 -46 l0 -51 -150 0 -150 0 0 50 0 51 38 -3
37 -3 0 135 0 135 -37 3 c-38 3 -38 4 -38 48 l0 44 113 0 112 0 -3 -176z
m2075 161 c21 -9 46 -23 57 -33 31 -28 56 -93 56 -151 l0 -54 -156 5 c-175 5
-182 3 -149 -58 11 -21 35 -42 61 -55 38 -18 49 -19 79 -9 20 6 49 23 66 38
31 25 31 25 65 7 19 -10 34 -21 34 -25 0 -16 -51 -60 -98 -84 -95 -48 -254
-27 -314 40 -47 53 -66 183 -39 265 13 42 74 102 116 117 47 16 180 14 222 -3z
m-6607 -338 c0 -2 -10 -12 -22 -23 l-23 -19 19 23 c18 21 26 27 26 19z"/>
<path d="M8462 2355 c-18 -23 -22 -41 -22 -106 0 -68 3 -81 24 -106 21 -24 31
-28 69 -26 83 3 87 8 87 133 0 66 -4 111 -11 115 -6 4 -36 9 -68 12 -54 5 -59
4 -79 -22z"/>
<path d="M7956 2377 c-30 -30 -41 -80 -33 -152 7 -65 22 -90 66 -111 31 -15
38 -15 60 -3 41 23 52 55 49 146 -3 73 -6 86 -28 108 -38 38 -83 43 -114 12z"/>
<path d="M9062 2399 c-30 -11 -61 -48 -62 -71 0 -16 11 -18 85 -18 l85 0 0 29
c0 20 -9 36 -26 50 -29 23 -46 25 -82 10z"/>
</g>
</svg>
